<svg xmlns="http://www.w3.org/2000/svg" width="800" height="800" viewBox="0 0 60 60"><g fill="none" fill-rule="evenodd"><g stroke="#314E55" stroke-linejoin="round" stroke-width="2"><path fill="#5ECC66" stroke-linecap="round" d="m25.746 18.823-3.38-6.105s2.695-4.88 5.688-2.84c2.992 2.039 1.638 4.504 1.638 4.504l5.165-8.32-.461 8.32s4.902-6.906 6.665-4.285c1.763 2.621-4.68 8.767-4.68 8.767"/><path fill="#E65F58" stroke-linecap="round" d="M30.559 20.09c-7.546-2.025-15.101.531-16.631 6.838-3.104 12.798 10.79 29.517 17.54 29.65 6.749.135 20.329-22.166 16.543-31.143-1.92-4.553-9.686-7.318-17.452-5.344Z"/><path d="M29 26h2M32 29h2M34 26h2M36 30h2M42 26h2M38 27h2M40 30h2M33 32h2"/></g></g></svg>
